<?xml version="1.0" encoding="iso-8859-1"?>
<!-- Generator: Adobe Illustrator 19.0.0, SVG Export Plug-In . SVG Version: 6.00 Build 0)  -->
<svg version="1.1" id="Capa_1" xmlns="http://www.w3.org/2000/svg" xmlns:xlink="http://www.w3.org/1999/xlink" x="0px" y="0px"
	 viewBox="0 0 394.971 394.971" style="enable-background:new 0 0 394.971 394.971;" xml:space="preserve">
<g>
	<g>
		<circle style="fill:#00EFD1;" cx="56.424" cy="343.771" r="40.751"/>
		<circle style="fill:#00EFD1;" cx="56.424" cy="197.486" r="40.751"/>
		<circle style="fill:#00EFD1;" cx="56.424" cy="51.2" r="40.751"/>
	</g>
	<g>
		<path style="fill:#083863;" d="M56.424,248.686c-28.277,0-51.2-22.923-51.2-51.2c0-28.277,22.923-51.2,51.2-51.2
			c28.277,0,51.2,22.923,51.2,51.2l0,0C107.624,225.763,84.701,248.686,56.424,248.686z M56.424,167.184
			c-16.735,0-30.302,13.567-30.302,30.302s13.567,30.302,30.302,30.302s30.302-13.567,30.302-30.302
			C86.727,180.75,73.16,167.184,56.424,167.184L56.424,167.184z"/>
		<path style="fill:#083863;" d="M379.298,207.935H143.151c-5.771,0-10.449-4.678-10.449-10.449c0-5.771,4.678-10.449,10.449-10.449
			h236.147c5.771,0,10.449,4.678,10.449,10.449C389.747,203.257,385.069,207.935,379.298,207.935z"/>
		<path style="fill:#083863;" d="M56.424,102.4c-28.277,0-51.2-22.923-51.2-51.2c0-28.277,22.923-51.2,51.2-51.2
			c28.277,0,51.2,22.923,51.2,51.2v0C107.624,79.477,84.701,102.4,56.424,102.4z M56.424,20.898
			c-16.735,0-30.302,13.567-30.302,30.302s13.567,30.302,30.302,30.302S86.727,67.935,86.727,51.2l0,0
			C86.727,34.465,73.16,20.898,56.424,20.898z"/>
		<path style="fill:#083863;" d="M379.298,61.649H143.151c-5.771,0-10.449-4.678-10.449-10.449s4.678-10.449,10.449-10.449h236.147
			c5.771,0,10.449,4.678,10.449,10.449S385.069,61.649,379.298,61.649z"/>
		<path style="fill:#083863;" d="M56.424,394.971c-28.277,0-51.2-22.923-51.2-51.2c0-28.277,22.923-51.2,51.2-51.2
			s51.2,22.923,51.2,51.2S84.701,394.971,56.424,394.971L56.424,394.971z M56.424,313.469c-16.735,0-30.302,13.567-30.302,30.302
			s13.567,30.302,30.302,30.302s30.302-13.567,30.302-30.302c0,0,0,0,0,0C86.727,327.036,73.16,313.469,56.424,313.469
			L56.424,313.469L56.424,313.469z"/>
		<path style="fill:#083863;" d="M379.298,354.22H143.151c-5.771,0-10.449-4.678-10.449-10.449s4.678-10.449,10.449-10.449h236.147
			c5.771,0,10.449,4.678,10.449,10.449S385.069,354.22,379.298,354.22z"/>
	</g>
</g>
<g>
</g>
<g>
</g>
<g>
</g>
<g>
</g>
<g>
</g>
<g>
</g>
<g>
</g>
<g>
</g>
<g>
</g>
<g>
</g>
<g>
</g>
<g>
</g>
<g>
</g>
<g>
</g>
<g>
</g>
</svg>
